PathFileType	4	(X/Y/Z)	/tmp/tmpa0c7p0na/results/JA1Gait35.trc
DataRate	CameraRate	NumFrames	NumMarkers	Units	OrigDataRate	OrigDataStartFrame	OrigNumFrames
250	250	8	53	m	250	120	322
Frame#	Time	C7			LARM			LASI			LELB			LFOREARM			LHEEL			LLEPI			LLMAL			LMFL			LMFS			LP1MT			LP5MT			LPAT			LSH			LTHAD			LTHAP			LTHLD			LTHLP			LTIAD			LTIAP			LTILAT			LTOE			LWR			MAN			P1			P2			P3			RARM			RASI			RELB			RFOREARM			RHEEL			RLEPI			RLMAL			RMFL			RMFS			RP1MT			RP5MT			RPAT			RSH			RTHAD			RTHAP			RTHLD			RTHLP			RTIAD			RTIAP			RTILAT			RTOE			RWR			SACR			T7			x52			x53		
		X1	Y1	Z1	X2	Y2	Z2	X3	Y3	Z3	X4	Y4	Z4	X5	Y5	Z5	X6	Y6	Z6	X7	Y7	Z7	X8	Y8	Z8	X9	Y9	Z9	X10	Y10	Z10	X11	Y11	Z11	X12	Y12	Z12	X13	Y13	Z13	X14	Y14	Z14	X15	Y15	Z15	X16	Y16	Z16	X17	Y17	Z17	X18	Y18	Z18	X19	Y19	Z19	X20	Y20	Z20	X21	Y21	Z21	X22	Y22	Z22	X23	Y23	Z23	X24	Y24	Z24	X25	Y25	Z25	X26	Y26	Z26	X27	Y27	Z27	X28	Y28	Z28	X29	Y29	Z29	X30	Y30	Z30	X31	Y31	Z31	X32	Y32	Z32	X33	Y33	Z33	X34	Y34	Z34	X35	Y35	Z35	X36	Y36	Z36	X37	Y37	Z37	X38	Y38	Z38	X39	Y39	Z39	X40	Y40	Z40	X41	Y41	Z41	X42	Y42	Z42	X43	Y43	Z43	X44	Y44	Z44	X45	Y45	Z45	X46	Y46	Z46	X47	Y47	Z47	X48	Y48	Z48	X49	Y49	Z49	X50	Y50	Z50	X51	Y51	Z51	X52	Y52	Z52	X53	Y53	Z53

121	0.48	-1.38956	1.47413	0.200757	-1.51047	1.43994	-0.0538397	-1.30722	0.995229	0.0911283	-1.65381	1.43827	-0.0699304	-1.7422	1.31893	-0.103334	-1.14588	0.288182	0.168905	-1.0077	0.758635	0.081271	-1.08327	0.319433	0.111956	-1.0155	0.277022	0.0929309	-0.973851	0.299221	0.15073	-0.913283	0.235483	0.170368	-0.95685	0.234395	0.0529025	-0.935919	0.813942	0.147482	-1.34918	1.47423	0.0249338	-1.05566	0.903859	0.122053	-1.16162	0.945637	0.113812	-1.09268	0.803078	0.047852	-1.20081	0.83	0.0231596	-1.02119	0.462796	0.157127	-0.989458	0.599591	0.153982	-1.05081	0.540103	0.0853331	-0.896322	0.262063	0.130005	-1.84244	1.23081	-0.11736	-1.2576	1.37494	0.162209	-1.49556	1.03211	0.158397	-1.49615	1.04106	0.263771	-1.53892	0.992038	0.211849	-1.19822	1.33913	0.425586	-1.30809	0.968453	0.304813	-1.10781	1.24076	0.468363	-1.04259	1.34647	0.393575	-2.17091	0.424147	0.214014	-1.7308	0.591193	0.312731	-2.13949	0.365959	0.269521	-2.17746	0.290672	0.270943	-2.13123	0.255465	0.223158	-2.17879	0.189039	0.175681	-2.22037	0.215557	0.292371	-1.6716	0.52796	0.252645	-1.32252	1.47588	0.334881	-1.55056	0.621998	0.272055	-1.47566	0.684671	0.298076	-1.62529	0.693777	0.352725	-1.5574	0.781819	0.377347	-2.01777	0.395325	0.216796	-1.9027	0.454349	0.229049	-1.93971	0.492276	0.303912	-2.17937	0.168536	0.232665	-0.988764	1.43748	0.327344	-1.47474	1.05995	0.210477	-1.46403	1.28633	0.228647	-0.958664	1.48837	0.290305	-1.89339	1.18602	-0.124489
122	0.484	-1.35089	1.47658	0.199958	-1.47354	1.44105	-0.0498319	-1.27039	0.996123	0.091903	-1.61683	1.44038	-0.0633294	-1.70529	1.32148	-0.099333	-1.07781	0.270567	0.168212	-0.973869	0.752001	0.0807277	-1.01592	0.305532	0.112455	-0.945214	0.267767	0.0950194	-0.909054	0.2937	0.155614	-0.840947	0.236399	0.175683	-0.882732	0.228315	0.05797	-0.902184	0.809453	0.14533	-1.31055	1.47476	0.0240021	-1.02017	0.899183	0.124041	-1.12591	0.940699	0.117005	-1.05738	0.799715	0.0473938	-1.16517	0.828262	0.0229028	-0.966274	0.453965	0.15692	-0.944525	0.592764	0.153199	-1.00012	0.527865	0.0836233	-0.826218	0.262948	0.134952	-1.80494	1.23385	-0.115061	-1.21911	1.37572	0.162223	-1.45864	1.03308	0.157257	-1.45886	1.04178	0.263211	-1.50207	0.993337	0.211099	-1.15983	1.34046	0.426614	-1.27066	0.970645	0.305908	-1.07048	1.24199	0.468944	-1.00883	1.3492	0.39381	-2.14616	0.451479	0.2128	-1.69122	0.590587	0.312814	-2.11473	0.393232	0.269039	-2.15415	0.319766	0.271908	-2.11018	0.281892	0.223303	-2.16148	0.217283	0.177712	-2.19708	0.246452	0.295919	-1.63415	0.526646	0.252117	-1.28342	1.47847	0.33507	-1.50936	0.621317	0.2737	-1.43552	0.685461	0.298206	-1.58521	0.692182	0.354571	-1.51789	0.780917	0.379068	-1.99158	0.415762	0.215894	-1.87375	0.467242	0.228895	-1.90726	0.506087	0.303547	-2.14548	0.201088	0.22121	-0.958592	1.44169	0.327031	-1.438	1.06091	0.209759	-1.42568	1.2892	0.228995	-0.930496	1.49342	0.289687	-1.85558	1.18931	-0.123055
123	0.488	-1.31105	1.47922	0.199271	-1.4359	1.44087	-0.0468202	-1.23397	0.997411	0.0926063	-1.57894	1.44086	-0.058215	-1.66772	1.32205	-0.0957702	-1.01121	0.25443	0.166925	-0.940182	0.744193	0.0796559	-0.94968	0.292169	0.112106	-0.875925	0.25923	0.0971699	-0.84385	0.289423	0.157537	-0.771974	0.238508	0.18205	-0.810286	0.222605	0.0634704	-0.869552	0.803237	0.143605	-1.27171	1.4756	0.0230935	-0.984816	0.892302	0.124742	-1.08952	0.935017	0.118726	-1.02407	0.796071	0.0465462	-1.13071	0.827663	0.021378	-0.912784	0.444818	0.156543	-0.9006	0.584924	0.152115	-0.949615	0.515133	0.0814956	-0.755488	0.266102	0.137121	-1.76666	1.2346	-0.112694	-1.18039	1.37692	0.16236	-1.42064	1.03404	0.156221	-1.42193	1.04241	0.262633	-1.46533	0.994306	0.210587	-1.122	1.34156	0.427786	-1.23296	0.973067	0.30676	-1.03509	1.24218	0.469826	-0.975922	1.35012	0.393882	-2.1172	0.480688	0.212171	-1.65227	0.589937	0.313766	-2.08799	0.422304	0.26838	-2.12872	0.350606	0.272557	-2.08711	0.310638	0.22359	-2.14211	0.246398	0.179081	-2.17558	0.277582	0.29698	-1.59611	0.523899	0.253854	-1.24374	1.4813	0.335064	-1.46747	0.619054	0.276547	-1.39424	0.685006	0.2991	-1.54432	0.689668	0.355703	-1.47745	0.778403	0.380181	-1.96315	0.436591	0.215441	-1.84162	0.479285	0.229108	-1.87331	0.521328	0.303301	-2.12742	0.229092	0.222718	-0.927981	1.44334	0.326894	-1.40168	1.06215	0.209101	-1.38767	1.29203	0.228881	-0.90117	1.49547	0.289432	-1.81694	1.19015	-0.121296
124	0.492	-1.27147	1.48187	0.198635	-1.39776	1.44009	-0.0450589	-1.19766	0.999106	0.0935412	-1.54115	1.43989	-0.054167	-1.62941	1.32078	-0.0924803	-0.946347	0.239938	0.165231	-0.90777	0.735467	0.0791373	-0.884912	0.280222	0.111585	-0.808669	0.251729	0.0988213	-0.781757	0.285594	0.159683	-0.706376	0.241212	0.188441	-0.739592	0.217889	0.0693901	-0.837119	0.795705	0.141825	-1.23256	1.47642	0.0221749	-0.949617	0.884457	0.124181	-1.05349	0.928484	0.120247	-0.99173	0.792234	0.0448548	-1.09756	0.827162	0.0196118	-0.860938	0.435604	0.155865	-0.857908	0.576289	0.150763	-0.902826	0.502043	0.0815487	-0.695654	0.267046	0.147009	-1.72741	1.23316	-0.110264	-1.14166	1.37837	0.162475	-1.38543	1.03538	0.156151	-1.38451	1.04299	0.262351	-1.4275	0.994375	0.210163	-1.08566	1.34183	0.428348	-1.19515	0.975605	0.307392	-1.00111	1.24131	0.471034	-0.943402	1.34922	0.394327	-2.08315	0.511229	0.21213	-1.61257	0.589482	0.315369	-2.0577	0.451309	0.268201	-2.10166	0.381692	0.273145	-2.06181	0.339564	0.225178	-2.12069	0.277613	0.17962	-2.15365	0.310009	0.296521	-1.55763	0.520218	0.257986	-1.20327	1.48425	0.334405	-1.42544	0.616003	0.279906	-1.35264	0.683578	0.300471	-1.50254	0.686632	0.356877	-1.43674	0.775924	0.381191	-1.93199	0.457071	0.216427	-1.80779	0.490397	0.231011	-1.83766	0.536509	0.303516	-2.10821	0.259352	0.223573	-0.896701	1.44258	0.326941	-1.36601	1.06353	0.209085	-1.34985	1.29464	0.228275	-0.870584	1.49479	0.289256	-1.77722	1.18863	-0.119303
125	0.496	-1.23156	1.4848	0.197677	-1.34845	1.4395	-0.0531457	-1.16165	1.00098	0.0947731	-1.50266	1.43761	-0.0513354	-1.59011	1.31794	-0.0898729	-0.884038	0.22706	0.162727	-0.879149	0.724798	0.0810914	-0.822525	0.269361	0.111248	-0.745235	0.243851	0.10231	-0.721737	0.282792	0.161672	-0.645877	0.244373	0.195158	-0.671899	0.2141	0.0761007	-0.805357	0.787025	0.140469	-1.19338	1.47722	0.0210483	-0.91464	0.87582	0.123062	-1.01676	0.921921	0.120602	-0.960766	0.786665	0.0437842	-1.06545	0.825538	0.0183207	-0.810797	0.426396	0.15519	-0.816713	0.567011	0.150021	-0.854332	0.489799	0.0802688	-0.634725	0.270016	0.153326	-1.68695	1.22956	-0.108125	-1.10292	1.37994	0.162648	-1.34898	1.03632	0.156068	-1.34708	1.04334	0.262223	-1.38922	0.993661	0.210336	-1.05075	1.34158	0.428475	-1.1575	0.978092	0.307953	-0.968114	1.23942	0.473121	-0.910779	1.34666	0.395609	-2.04503	0.542013	0.212581	-1.57215	0.589171	0.317164	-2.02454	0.479766	0.268666	-2.07354	0.413296	0.272901	-2.03631	0.36881	0.225145	-2.09746	0.31127	0.179355	-2.13178	0.345724	0.294944	-1.51908	0.515901	0.263036	-1.16245	1.48698	0.333456	-1.38359	0.613202	0.283687	-1.3098	0.683399	0.303892	-1.46086	0.684016	0.358137	-1.39495	0.773224	0.381523	-1.89791	0.476776	0.217432	-1.77223	0.501039	0.233332	-1.79991	0.550983	0.304083	-2.0872	0.292621	0.223412	-0.864521	1.43953	0.327288	-1.33019	1.06491	0.209233	-1.312	1.29734	0.227402	-0.838652	1.49147	0.28908	-1.73617	1.18464	-0.117402
126	0.5	-1.19106	1.4875	0.196758	-1.32101	1.43731	-0.0432277	-1.12579	1.00285	0.0960147	-1.46433	1.43429	-0.049138	-1.55052	1.31371	-0.087527	-0.824984	0.21527	0.15904	-0.846707	0.714575	0.079312	-0.763587	0.259652	0.111489	-0.684855	0.237888	0.105767	-0.665083	0.280263	0.163273	-0.58945	0.247542	0.201553	-0.607164	0.211675	0.0826898	-0.77379	0.777388	0.139207	-1.15404	1.47802	0.0201053	-0.880924	0.866125	0.122316	-0.979321	0.915526	0.119434	-0.933276	0.778447	0.0445512	-1.03359	0.82265	0.017407	-0.762719	0.417661	0.154419	-0.777526	0.55748	0.149714	-0.806585	0.47806	0.0784541	-0.577583	0.272553	0.159773	-1.64533	1.22393	-0.105961	-1.06427	1.38127	0.162816	-1.31277	1.03721	0.156722	-1.3099	1.04407	0.262868	-1.35047	0.992473	0.211196	-1.01574	1.34164	0.429472	-1.11999	0.980391	0.308297	-0.936839	1.23649	0.475145	-0.878817	1.34252	0.396519	-2.00278	0.572468	0.213648	-1.53026	0.588387	0.319308	-1.98871	0.507876	0.269459	-2.04362	0.446009	0.272293	-2.00864	0.398848	0.225376	-2.07145	0.347207	0.177968	-2.10902	0.383632	0.291625	-1.48039	0.51113	0.269005	-1.12171	1.48927	0.332464	-1.34165	0.611409	0.287163	-1.26854	0.682787	0.30583	-1.4193	0.682004	0.359585	-1.35335	0.771309	0.38215	-1.86169	0.495924	0.219452	-1.74777	0.506436	0.246248	-1.75974	0.564249	0.305432	-2.0642	0.32801	0.222387	-0.831644	1.43436	0.327563	-1.29437	1.06634	0.209754	-1.2745	1.29975	0.226369	-0.805264	1.48571	0.289	-1.69351	1.1783	-0.11533
127	0.504	-1.15161	1.48897	0.195511	-1.2832	1.43546	-0.0422817	-1.08992	1.00495	0.0971167	-1.42558	1.43039	-0.0480657	-1.50968	1.30804	-0.0858774	-0.768422	0.205413	0.156389	-0.814992	0.703268	0.0781318	-0.707561	0.251769	0.110788	-0.627342	0.23264	0.108528	-0.611589	0.278016	0.165462	-0.537179	0.250811	0.208468	-0.546923	0.209742	0.089662	-0.742094	0.767047	0.137825	-1.1147	1.47886	0.0189105	-0.846491	0.8559	0.121243	-0.941527	0.909334	0.116804	-0.903785	0.768582	0.0444944	-1.00235	0.816996	0.017464	-0.716928	0.409297	0.154291	-0.740161	0.5478	0.149937	-0.759992	0.467634	0.0762127	-0.523179	0.275428	0.165493	-1.60271	1.21611	-0.103814	-1.02579	1.38251	0.163102	-1.27667	1.03849	0.157958	-1.27243	1.04475	0.264146	-1.31256	0.992314	0.212812	-0.981497	1.34131	0.430533	-1.08234	0.982619	0.308696	-0.906619	1.23284	0.477611	-0.846474	1.33691	0.398529	-1.95713	0.602173	0.214934	-1.48761	0.586935	0.321509	-1.94985	0.535628	0.270574	-2.01033	0.479118	0.2718	-1.97847	0.429521	0.225178	-2.04292	0.384288	0.175789	-2.08122	0.422994	0.288202	-1.44157	0.506139	0.274748	-1.08104	1.49134	0.331555	-1.29969	0.610552	0.290053	-1.22747	0.683532	0.30781	-1.37793	0.68054	0.36137	-1.31259	0.770468	0.383065	-1.82397	0.514371	0.22233	-1.69585	0.520057	0.239019	-1.7171	0.57576	0.307445	-2.0381	0.36473	0.220474	-0.797796	1.42721	0.328475	-1.25841	1.06757	0.210929	-1.23741	1.30239	0.225441	-0.770574	1.47771	0.289298	-1.64999	1.16939	-0.11293
128	0.508	-1.11166	1.49205	0.194051	-1.24484	1.43342	-0.0417985	-1.05408	1.00715	0.0980564	-1.38703	1.42582	-0.0473732	-1.46864	1.30132	-0.0844414	-0.715205	0.196996	0.154444	-0.783512	0.69154	0.0768878	-0.655501	0.244959	0.110283	-0.572296	0.228879	0.10984	-0.561551	0.275414	0.167069	-0.488512	0.25235	0.213917	-0.490984	0.208075	0.0963135	-0.710383	0.755923	0.136513	-1.07578	1.47949	0.0184346	-0.812078	0.845145	0.119718	-0.904353	0.902731	0.113676	-0.874003	0.758086	0.0446409	-0.971264	0.809432	0.0190231	-0.673892	0.401702	0.154438	-0.704343	0.538349	0.150596	-0.717031	0.459341	0.074467	-0.473931	0.276964	0.171487	-1.55859	1.20672	-0.101934	-0.98734	1.38353	0.163506	-1.24054	1.03975	0.159658	-1.2344	1.04498	0.265818	-1.2755	0.992837	0.214932	-0.947701	1.34039	0.432075	-1.04468	0.98506	0.308898	-0.877386	1.22842	0.480243	-0.81487	1.32973	0.399938	-1.90772	0.630976	0.216837	-1.4438	0.584868	0.324138	-1.90786	0.562701	0.271751	-1.97285	0.512786	0.271541	-1.94444	0.460856	0.225013	-2.01148	0.421901	0.173485	-2.04811	0.462888	0.28544	-1.40055	0.50186	0.280296	-1.04073	1.49282	0.330766	-1.25756	0.610372	0.292643	-1.18739	0.685042	0.308889	-1.33689	0.679522	0.363408	-1.27317	0.770775	0.38438	-1.78193	0.532947	0.22357	-1.65396	0.529922	0.240967	-1.67205	0.585973	0.310137	-2.00847	0.401822	0.218041	-0.763313	1.41811	0.329099	-1.22257	1.06902	0.212795	-1.19897	1.30467	0.223711	-0.734481	1.46753	0.289483	-1.60431	1.15864	-0.110824
